<svg width="800" height="480" viewBox="0 0 800 480" xmlns="http://www.w3.org/2000/svg">
  <rect width="800" height="480" rx="32" fill="#111827"/>
  <rect x="80" y="90" width="640" height="300" rx="24" fill="#020617" stroke="#E5E7EB" stroke-width="2"/>
  <g transform="translate(120,130)">
    <rect x="0" y="0" width="180" height="220" rx="16" fill="#1F2937"/>
    <rect x="220" y="40" width="180" height="180" rx="16" fill="#1F2937"/>
    <rect x="440" y="20" width="140" height="200" rx="16" fill="#1F2937"/>
    <rect x="20" y="30" width="120" height="14" rx="7" fill="#60A5FA"/>
    <rect x="20" y="60" width="140" height="10" rx="5" fill="#4B5563"/>
    <rect x="20" y="82" width="110" height="10" rx="5" fill="#4B5563"/>
    <rect x="240" y="70" width="120" height="14" rx="7" fill="#22C55E"/>
    <rect x="240" y="100" width="140" height="10" rx="5" fill="#4B5563"/>
    <rect x="460" y="60" width="100" height="14" rx="7" fill="#F97316"/>
    <rect x="460" y="90" width="80" height="10" rx="5" fill="#4B5563"/>
  </g>
  <text x="90" y="110" fill="#F9FAFB" font-family="system-ui" font-size="28" font-weight="600">
    Google Project Management
  </text>
</svg>

